<svg id="visual" viewBox="0 0 900 600" width="900" height="600" xmlns="http://www.w3.org/2000/svg" xmlns:xlink="http://www.w3.org/1999/xlink" version="1.1"><path d="M0 472L21.5 468.7C43 465.3 86 458.7 128.8 458.7C171.7 458.7 214.3 465.3 257.2 466C300 466.7 343 461.3 385.8 463.5C428.7 465.7 471.3 475.3 514.2 476.2C557 477 600 469 642.8 469C685.7 469 728.3 477 771.2 475.5C814 474 857 463 878.5 457.5L900 452L900 601L878.5 601C857 601 814 601 771.2 601C728.3 601 685.7 601 642.8 601C600 601 557 601 514.2 601C471.3 601 428.7 601 385.8 601C343 601 300 601 257.2 601C214.3 601 171.7 601 128.8 601C86 601 43 601 21.5 601L0 601Z" fill="#fa7268"></path><path d="M0 523L21.5 516.5C43 510 86 497 128.8 497.3C171.7 497.7 214.3 511.3 257.2 515.3C300 519.3 343 513.7 385.8 512.8C428.7 512 471.3 516 514.2 514.8C557 513.7 600 507.3 642.8 508.5C685.7 509.7 728.3 518.3 771.2 518.2C814 518 857 509 878.5 504.5L900 500L900 601L878.5 601C857 601 814 601 771.2 601C728.3 601 685.7 601 642.8 601C600 601 557 601 514.2 601C471.3 601 428.7 601 385.8 601C343 601 300 601 257.2 601C214.3 601 171.7 601 128.8 601C86 601 43 601 21.5 601L0 601Z" fill="#f1777c"></path><path d="M0 523L21.5 525.2C43 527.3 86 531.7 128.8 529.7C171.7 527.7 214.3 519.3 257.2 515C300 510.7 343 510.3 385.8 514.8C428.7 519.3 471.3 528.7 514.2 528C557 527.3 600 516.7 642.8 511C685.7 505.3 728.3 504.7 771.2 509.8C814 515 857 526 878.5 531.5L900 537L900 601L878.5 601C857 601 814 601 771.2 601C728.3 601 685.7 601 642.8 601C600 601 557 601 514.2 601C471.3 601 428.7 601 385.8 601C343 601 300 601 257.2 601C214.3 601 171.7 601 128.8 601C86 601 43 601 21.5 601L0 601Z" fill="#e57e8d"></path><path d="M0 545L21.5 545.5C43 546 86 547 128.8 547.3C171.7 547.7 214.3 547.3 257.2 544.7C300 542 343 537 385.8 538.2C428.7 539.3 471.3 546.7 514.2 548.3C557 550 600 546 642.8 546.5C685.7 547 728.3 552 771.2 552.2C814 552.3 857 547.7 878.5 545.3L900 543L900 601L878.5 601C857 601 814 601 771.2 601C728.3 601 685.7 601 642.8 601C600 601 557 601 514.2 601C471.3 601 428.7 601 385.8 601C343 601 300 601 257.2 601C214.3 601 171.7 601 128.8 601C86 601 43 601 21.5 601L0 601Z" fill="#d78699"></path><path d="M0 562L21.5 562.5C43 563 86 564 128.8 566.5C171.7 569 214.3 573 257.2 575.2C300 577.3 343 577.7 385.8 575.8C428.7 574 471.3 570 514.2 569.7C557 569.3 600 572.7 642.8 571.3C685.7 570 728.3 564 771.2 560.7C814 557.3 857 556.7 878.5 556.3L900 556L900 601L878.5 601C857 601 814 601 771.2 601C728.3 601 685.7 601 642.8 601C600 601 557 601 514.2 601C471.3 601 428.7 601 385.8 601C343 601 300 601 257.2 601C214.3 601 171.7 601 128.8 601C86 601 43 601 21.5 601L0 601Z" fill="#c78da1"></path></svg>