<svg width="318" height="452" viewBox="0 0 318 452" fill="none" xmlns="http://www.w3.org/2000/svg">
<style>
    path {
        fill: #000;
    }
    @media (prefers-color-scheme: dark){
        path {
            fill: #fff;
        }
    }
</style>
<g filter="url(#filter0_d_2_4)">
<path d="M150.5 317C165.833 317 181.167 312.167 196.5 302.5C205.833 304.167 214.5 305 222.5 305C249.833 305 270.333 298.333 284 285C296.333 273 302.5 256.333 302.5 235C302.5 221 299.833 206.167 294.5 190.5C300.5 179.167 303.5 167.333 303.5 155C303.5 124.333 286.5 97.1667 252.5 73.5C242.167 50.1667 226.667 32 206 19C187.667 6.66667 168.833 0.5 149.5 0.5C120.5 0.5 102 12.5 94 36.5C91.6667 42.8333 90.6667 49.5 91 56.5C59.6667 73.8333 44 100.333 44 136C44 170.667 56.1667 202.833 80.5 232.5C80.1667 234.167 80 235.833 80 237.5C80 238.833 80 240.333 80 242C80 255.667 83 268.333 89 280C97.3333 296 110.5 307.167 128.5 313.5C135.167 315.833 142.5 317 150.5 317ZM242.5 67C214.167 50.6667 182.167 42.5 146.5 42.5C128.167 42.5 111 46.5 95 54.5C95 48.5 96 42.6667 98 37C105.667 15.3333 122.833 4.50001 149.5 4.50001C167.167 4.50001 183.833 9.66667 199.5 20C217.833 31.6667 232.167 47.3333 242.5 67ZM206.5 286C185.167 282 164.167 273.667 143.5 261C122.5 248 104.833 232 90.5 213C95.1667 201 103 190.667 114 182C125 173 136.5 168.5 148.5 168.5C163.5 168.5 175.333 176.333 184 192C184 192.667 184.333 193 185 193C188 193 188.833 192 187.5 190C178.167 172.667 165.167 164 148.5 164C136.5 164 124.667 168.5 113 177.5C101.333 186.167 92.6667 196.333 87 208C69.6667 183.667 61 157.5 61 129.5C61 101.833 71.5 80.5 92.5 65.5C95.1667 76.8333 100.667 86.5 109 94.5C117.333 102.5 127.167 106.667 138.5 107C139.833 107 140.5 106.333 140.5 105C140.5 103.667 139.833 103 138.5 103C128.167 102.667 119.167 98.6667 111.5 91C103.5 83.3333 98.3333 74 96 63C110.333 53.6667 127.167 49 146.5 49C188.833 49 223.667 61.6667 251 87C253.333 93.6667 255.167 100.5 256.5 107.5C257.833 114.167 258.833 121.333 259.5 129C226.5 91 191.833 72 155.5 72C151.167 72 149 73 149 75C149 77.3333 151.333 78.5 156 78.5C172.333 78.5 190.167 85.1667 209.5 98.5C219.167 105.167 228.167 112.667 236.5 121C244.833 129.333 252.833 138.667 260.5 149L259.5 166.5C255.5 216.833 237.833 256.667 206.5 286ZM290 178C285 165 277.5 152 267.5 139C267.167 124.667 265.167 111 261.5 98C268.833 106.667 274.833 115.833 279.5 125.5C286.833 139.833 290.5 155 290.5 171C290.5 174 290.333 176.333 290 178ZM224.5 288H220C218.667 288 217.167 287.833 215.5 287.5C247.167 255.833 264.5 213.167 267.5 159.5C284.167 185.833 292.5 209.667 292.5 231C292.5 249 286.667 263.333 275 274C263.333 284.667 246.5 289.333 224.5 288ZM148 313C141.333 313 135.167 311.833 129.5 309.5C114.167 304.167 102.667 294.667 95 281C88 268.667 84.8333 254.5 85.5 238.5C113.167 270.5 147 291.333 187 301C174 309 161 313 148 313ZM59 443.5C67 443.5 74.6667 442.5 82 440.5C105.667 433.833 134.833 415.167 169.5 384.5C208.5 349.5 235.667 328.167 251 320.5C258 317.167 265 315.5 272 315.5C278.333 315.5 284.167 317.167 289.5 320.5C299.167 327.167 304 336.833 304 349.5C304 369.5 293.333 382.167 272 387.5C268 388.5 266 389.833 266 391.5C266 392.833 267.333 393.5 270 393.5L275 392.5C300.667 383.833 313.5 369.667 313.5 350C313.5 339.333 309.167 330 300.5 322C291.833 314.333 280.833 310.5 267.5 310.5C260.833 310.5 253.167 311.833 244.5 314.5C235.833 317.167 226.667 321.5 217 327.5C207 333.5 196.667 340.833 186 349.5L129 396.5C105.667 413.5 82.3333 425 59 431C53 432.667 47.6667 433.5 43 433.5C28 433.5 17 428.5 9.99999 418.5C8.33332 416.833 7 415.833 6.00001 415.5C5 415.167 4.5 415.5 4.5 416.5C4.5 417.167 5 418.167 6.00001 419.5C17.6667 435.5 35.3333 443.5 59 443.5Z"/>
</g>
<defs>
<filter id="filter0_d_2_4" x="0.5" y="0.5" width="317" height="451" filterUnits="userSpaceOnUse" color-interpolation-filters="sRGB">
<feFlood flood-opacity="0" result="BackgroundImageFix"/>
<feColorMatrix in="SourceAlpha" type="matrix" values="0 0 0 0 0 0 0 0 0 0 0 0 0 0 0 0 0 0 127 0" result="hardAlpha"/>
<feOffset dy="4"/>
<feGaussianBlur stdDeviation="2"/>
<feComposite in2="hardAlpha" operator="out"/>
<feColorMatrix type="matrix" values="0 0 0 0 0 0 0 0 0 0 0 0 0 0 0 0 0 0 0.25 0"/>
<feBlend mode="normal" in2="BackgroundImageFix" result="effect1_dropShadow_2_4"/>
<feBlend mode="normal" in="SourceGraphic" in2="effect1_dropShadow_2_4" result="shape"/>
</filter>
</defs>
</svg>
